<svg xmlns="http://www.w3.org/2000/svg" xmlns:xlink="http://www.w3.org/1999/xlink" viewBox="0 0 181 181">
  <defs>
    <style>
      .cls-1 {
        fill: #7a7a7a;
      }

      .cls-2, .cls-3 {
        stroke: none;
      }

      .cls-3 {
        fill: #fff;
      }

      .cls-4 {
        filter: url(#Path_2007);
      }
    </style>
    <filter id="Path_2007" x="0" y="0" width="181" height="181" filterUnits="userSpaceOnUse">
      <feOffset dy="5" input="SourceAlpha"/>
      <feGaussianBlur stdDeviation="3" result="blur"/>
      <feFlood flood-opacity="0.161"/>
      <feComposite operator="in" in2="blur"/>
      <feComposite in="SourceGraphic"/>
    </filter>
  </defs>
  <g class="cls-4" transform="matrix(1, 0, 0, 1, 0, 0)">
    <g id="Path_2007-2" data-name="Path 2007" class="cls-1" transform="translate(9 4)">
      <path class="cls-2" d="M 81.5 162.5 C 76.00391387939453 162.5 70.51145935058594 161.9463348388672 65.17514801025391 160.8543548583984 C 59.97470855712891 159.7901916503906 54.85939407348633 158.2023162841797 49.97129058837891 156.1348266601563 C 45.17183303833008 154.1048126220703 40.54268646240234 151.5922088623047 36.21247863769531 148.6667633056641 C 31.92327117919922 145.76904296875 27.88989639282227 142.4411926269531 24.2243537902832 138.7756500244141 C 20.55881309509277 135.110107421875 17.23095893859863 131.0767364501953 14.33322906494141 126.7875213623047 C 11.40779209136963 122.4573135375977 8.895187377929688 117.8281631469727 6.865166664123535 113.0287094116211 C 4.797687530517578 108.1406021118164 3.20981240272522 103.0252914428711 2.1456458568573 97.82485198974609 C 1.053666710853577 92.48854064941406 0.5 86.99608612060547 0.5 81.5 C 0.5 76.00391387939453 1.053666710853577 70.51145935058594 2.1456458568573 65.17514801025391 C 3.20981240272522 59.97470855712891 4.797687530517578 54.85939407348633 6.865166664123535 49.97129058837891 C 8.895187377929688 45.17183303833008 11.40779209136963 40.54268646240234 14.33322906494141 36.21247863769531 C 17.23095893859863 31.92327117919922 20.55881309509277 27.88989639282227 24.2243537902832 24.2243537902832 C 27.88989639282227 20.55881309509277 31.92327117919922 17.23095893859863 36.21247863769531 14.33322906494141 C 40.54268646240234 11.40779209136963 45.17183303833008 8.895187377929688 49.97129058837891 6.865166664123535 C 54.85939407348633 4.797687530517578 59.97470855712891 3.20981240272522 65.17514801025391 2.1456458568573 C 70.51145935058594 1.053666710853577 76.00391387939453 0.5 81.5 0.5 C 86.99608612060547 0.5 92.48854064941406 1.053666710853577 97.82485198974609 2.1456458568573 C 103.0252914428711 3.20981240272522 108.1406021118164 4.797687530517578 113.0287094116211 6.865166664123535 C 117.8281631469727 8.895187377929688 122.4573135375977 11.40779209136963 126.7875213623047 14.33322906494141 C 131.0767364501953 17.23095893859863 135.110107421875 20.55881309509277 138.7756500244141 24.2243537902832 C 142.4411926269531 27.88989639282227 145.76904296875 31.92327117919922 148.6667633056641 36.21247863769531 C 151.5922088623047 40.54268646240234 154.1048126220703 45.17183303833008 156.1348266601563 49.97129058837891 C 158.2023162841797 54.85939407348633 159.7901916503906 59.97470855712891 160.8543548583984 65.17514801025391 C 161.9463348388672 70.51145935058594 162.5 76.00391387939453 162.5 81.5 C 162.5 86.99608612060547 161.9463348388672 92.48854064941406 160.8543548583984 97.82485198974609 C 159.7901916503906 103.0252914428711 158.2023162841797 108.1406021118164 156.1348266601563 113.0287094116211 C 154.1048126220703 117.8281631469727 151.5922088623047 122.4573135375977 148.6667633056641 126.7875213623047 C 145.76904296875 131.0767364501953 142.4411926269531 135.110107421875 138.7756500244141 138.7756500244141 C 135.110107421875 142.4411926269531 131.0767364501953 145.76904296875 126.7875213623047 148.6667633056641 C 122.4573135375977 151.5922088623047 117.8281631469727 154.1048126220703 113.0287094116211 156.1348266601563 C 108.1406021118164 158.2023162841797 103.0252914428711 159.7901916503906 97.82485198974609 160.8543548583984 C 92.48854064941406 161.9463348388672 86.99608612060547 162.5 81.5 162.5 Z"/>
      <path class="cls-3" d="M 81.5 1 C 76.03752136230469 1 70.57877349853516 1.550247192382813 65.27537536621094 2.635482788085938 C 60.10729217529297 3.693038940429688 55.02377319335938 5.271041870117188 50.16608428955078 7.32568359375 C 45.39633178710938 9.343109130859375 40.79582977294922 11.84019470214844 36.49237823486328 14.74754333496094 C 32.22953796386719 17.62745666503906 28.22093200683594 20.93487548828125 24.57789611816406 24.57789611816406 C 20.93487548828125 28.22093200683594 17.62745666503906 32.22953796386719 14.74754333496094 36.49237823486328 C 11.84019470214844 40.79582977294922 9.343109130859375 45.39633178710938 7.32568359375 50.16608428955078 C 5.271041870117188 55.02377319335938 3.693038940429688 60.10729217529297 2.635482788085938 65.27537536621094 C 1.550247192382813 70.57877349853516 1 76.03752136230469 1 81.5 C 1 86.96247863769531 1.550247192382813 92.42122650146484 2.635482788085938 97.72460174560547 C 3.693038940429688 102.892707824707 5.271041870117188 107.9762115478516 7.32568359375 112.8339157104492 C 9.343109130859375 117.6036682128906 11.84019470214844 122.2041473388672 14.74754333496094 126.5075988769531 C 17.62745666503906 130.7704467773438 20.93487548828125 134.7790374755859 24.57789611816406 138.4220886230469 C 28.22093200683594 142.0651245117188 32.22953796386719 145.3725433349609 36.49237823486328 148.2524566650391 C 40.79582977294922 151.1598205566406 45.39633178710938 153.6568908691406 50.16608428955078 155.67431640625 C 55.02377319335938 157.7289581298828 60.10729217529297 159.3069610595703 65.27537536621094 160.364501953125 C 70.57877349853516 161.4497528076172 76.03752136230469 162 81.5 162 C 86.96247863769531 162 92.42122650146484 161.4497528076172 97.72460174560547 160.364501953125 C 102.892707824707 159.3069610595703 107.9762115478516 157.7289581298828 112.8339157104492 155.67431640625 C 117.6036682128906 153.6568908691406 122.2041473388672 151.1598205566406 126.5075988769531 148.2524566650391 C 130.7704467773438 145.3725433349609 134.7790374755859 142.0651245117188 138.4220886230469 138.4220886230469 C 142.0651245117188 134.7790374755859 145.3725433349609 130.7704467773438 148.2524566650391 126.5075988769531 C 151.1598205566406 122.2041473388672 153.6568908691406 117.6036682128906 155.67431640625 112.8339157104492 C 157.7289581298828 107.9762115478516 159.3069610595703 102.892707824707 160.364501953125 97.72460174560547 C 161.4497528076172 92.42122650146484 162 86.96247863769531 162 81.5 C 162 76.03752136230469 161.4497528076172 70.57877349853516 160.364501953125 65.27537536621094 C 159.3069610595703 60.10729217529297 157.7289581298828 55.02377319335938 155.67431640625 50.16608428955078 C 153.6568908691406 45.39633178710938 151.1598205566406 40.79582977294922 148.2524566650391 36.49237823486328 C 145.3725433349609 32.22953796386719 142.0651245117188 28.22093200683594 138.4220886230469 24.57789611816406 C 134.7790374755859 20.93487548828125 130.7704467773438 17.62745666503906 126.5075988769531 14.74754333496094 C 122.2041473388672 11.84019470214844 117.6036682128906 9.343109130859375 112.8339157104492 7.32568359375 C 107.9762115478516 5.271041870117188 102.892707824707 3.693038940429688 97.72460174560547 2.635482788085938 C 92.42122650146484 1.550247192382813 86.96247863769531 1 81.5 1 M 81.5 0 C 126.5111846923828 0 163 36.48879241943359 163 81.5 C 163 126.5111846923828 126.5111846923828 163 81.5 163 C 36.48879241943359 163 0 126.5111846923828 0 81.5 C 0 36.48879241943359 36.48879241943359 0 81.5 0 Z"/>
    </g>
  </g>
</svg>
