<svg xmlns="http://www.w3.org/2000/svg" viewBox="0 0 133.041 133.041">
  <defs>
    <style>
      .cls-1 {
        fill: #58bfa7;
      }

      .cls-2, .cls-3 {
        stroke: none;
      }

      .cls-3 {
        fill: #fff;
      }
    </style>
  </defs>
  <g id="Path_2005" data-name="Path 2005" class="cls-1" transform="translate(0)">
    <path class="cls-2" d="M 66.5205078125 132.041015625 C 57.67485427856445 132.041015625 49.09432601928711 130.3087921142578 41.01727294921875 126.8925094604492 C 37.1351432800293 125.25048828125 33.39072418212891 123.2180862426758 29.88807106018066 120.8517227172852 C 26.41843414306641 118.5076904296875 23.15570831298828 115.8156890869141 20.19050788879395 112.8505096435547 C 17.22532653808594 109.8853073120117 14.53332614898682 106.6225814819336 12.18929004669189 103.152946472168 C 9.822925567626953 99.65029144287109 7.790525913238525 95.90586853027344 6.148507595062256 92.02374267578125 C 2.732216835021973 83.94669342041016 0.9999987483024597 75.36616516113281 0.9999987483024597 66.5205078125 C 0.9999987483024597 57.67485427856445 2.732216835021973 49.09432601928711 6.148507595062256 41.01727294921875 C 7.790525913238525 37.1351432800293 9.822925567626953 33.39072418212891 12.18929004669189 29.88807106018066 C 14.53332614898682 26.41843414306641 17.22532653808594 23.15570831298828 20.19050788879395 20.19050788879395 C 23.15570831298828 17.22532653808594 26.41843414306641 14.53332614898682 29.88807106018066 12.18929004669189 C 33.39072418212891 9.822925567626953 37.1351432800293 7.790525913238525 41.01727294921875 6.148507595062256 C 49.09432601928711 2.732216835021973 57.67485427856445 0.9999987483024597 66.5205078125 0.9999987483024597 C 75.36616516113281 0.9999987483024597 83.94669342041016 2.732216835021973 92.02374267578125 6.148507595062256 C 95.90586853027344 7.790525913238525 99.65029144287109 9.822925567626953 103.152946472168 12.18929004669189 C 106.6225814819336 14.53332614898682 109.8853073120117 17.22532653808594 112.8505096435547 20.19050788879395 C 115.8156890869141 23.15570831298828 118.5076904296875 26.41843414306641 120.8517227172852 29.88807106018066 C 123.2180862426758 33.39072418212891 125.25048828125 37.1351432800293 126.8925094604492 41.01727294921875 C 130.3087921142578 49.09432601928711 132.041015625 57.67485427856445 132.041015625 66.5205078125 C 132.041015625 75.36616516113281 130.3087921142578 83.94669342041016 126.8925094604492 92.02374267578125 C 125.25048828125 95.90586853027344 123.2180862426758 99.65029144287109 120.8517227172852 103.152946472168 C 118.5076904296875 106.6225814819336 115.8156890869141 109.8853073120117 112.8505096435547 112.8505096435547 C 109.8853073120117 115.8156890869141 106.6225814819336 118.5076904296875 103.152946472168 120.8517227172852 C 99.65029144287109 123.2180862426758 95.90586853027344 125.25048828125 92.02374267578125 126.8925094604492 C 83.94669342041016 130.3087921142578 75.36616516113281 132.041015625 66.5205078125 132.041015625 Z"/>
    <path class="cls-3" d="M 66.5205078125 2 C 57.80941772460938 2 49.35996246337891 3.705642700195313 41.40683746337891 7.069526672363281 C 37.58415985107422 8.686378479003906 33.89703369140625 10.68770599365234 30.44786834716797 13.01790618896484 C 27.03098297119141 15.32632446289063 23.81780242919922 17.97743225097656 20.89761352539063 20.89761352539063 C 17.97743225097656 23.81780242919922 15.32632446289063 27.03098297119141 13.01790618896484 30.44786834716797 C 10.68770599365234 33.89703369140625 8.686378479003906 37.58415985107422 7.069526672363281 41.40683746337891 C 3.705642700195313 49.35996246337891 2 57.80941772460938 2 66.5205078125 C 2 75.23159790039063 3.705642700195313 83.68105316162109 7.069526672363281 91.63418579101563 C 8.686378479003906 95.45684814453125 10.68770599365234 99.14398193359375 13.01790618896484 102.5931396484375 C 15.32632446289063 106.0100326538086 17.97743225097656 109.2232208251953 20.89761352539063 112.1434020996094 C 23.81780242919922 115.0635833740234 27.03098297119141 117.7146911621094 30.44786834716797 120.0231094360352 C 33.89703369140625 122.3533096313477 37.58415985107422 124.3546371459961 41.40683746337891 125.9714889526367 C 49.35996246337891 129.3353881835938 57.80941772460938 131.041015625 66.5205078125 131.041015625 C 75.23159790039063 131.041015625 83.68105316162109 129.3353881835938 91.63418579101563 125.9714889526367 C 95.45684814453125 124.3546371459961 99.14398193359375 122.3533096313477 102.5931396484375 120.0231094360352 C 106.0100326538086 117.7146911621094 109.2232208251953 115.0635833740234 112.1434020996094 112.1434020996094 C 115.0635833740234 109.2232208251953 117.7146911621094 106.0100326538086 120.0231094360352 102.5931396484375 C 122.3533096313477 99.14398193359375 124.3546371459961 95.45684814453125 125.9714889526367 91.63418579101563 C 129.3353881835938 83.68105316162109 131.041015625 75.23159790039063 131.041015625 66.5205078125 C 131.041015625 57.80941772460938 129.3353881835938 49.35996246337891 125.9714889526367 41.40683746337891 C 124.3546371459961 37.58415985107422 122.3533096313477 33.89703369140625 120.0231094360352 30.44786834716797 C 117.7146911621094 27.03098297119141 115.0635833740234 23.81780242919922 112.1434020996094 20.89761352539063 C 109.2232208251953 17.97743225097656 106.0100326538086 15.32632446289063 102.5931396484375 13.01790618896484 C 99.14398193359375 10.68770599365234 95.45684814453125 8.686378479003906 91.63418579101563 7.069526672363281 C 83.68105316162109 3.705642700195313 75.23159790039063 2 66.5205078125 2 M 66.5205078125 0 C 103.2587585449219 0 133.041015625 29.78225708007813 133.041015625 66.5205078125 C 133.041015625 103.2587585449219 103.2587585449219 133.041015625 66.5205078125 133.041015625 C 29.78225708007813 133.041015625 0 103.2587585449219 0 66.5205078125 C 0 29.78225708007813 29.78225708007813 0 66.5205078125 0 Z"/>
  </g>
</svg>
